<svg width="24" height="24" viewBox="0 0 24 24" fill="none" xmlns="http://www.w3.org/2000/svg">
<g opacity="0.35">
<path d="M16.1389 22.75H8.08891C6.31278 22.7474 4.61014 22.0406 3.35422 20.7847C2.0983 19.5288 1.39156 17.8261 1.38891 16.05V8C1.38364 7.11631 1.55298 6.24028 1.88721 5.42222C2.22143 4.60416 2.71396 3.86017 3.3365 3.23298C3.95905 2.60578 4.69935 2.10774 5.51491 1.76745C6.33047 1.42715 7.20521 1.2513 8.08891 1.25H16.1889C17.965 1.26585 19.6624 1.98528 20.909 3.25059C22.1556 4.51589 22.8496 6.22383 22.8389 8V16.1C22.8231 17.8675 22.1106 19.5573 20.8561 20.8024C19.6016 22.0476 17.9064 22.7474 16.1389 22.75ZM8.08891 2.75C7.39762 2.74332 6.71193 2.87455 6.07195 3.13603C5.43197 3.3975 4.85056 3.78396 4.36172 4.2728C3.87287 4.76165 3.48641 5.34306 3.22494 5.98304C2.96347 6.62301 2.83223 7.3087 2.83891 8V16.1C2.84545 16.7829 2.98643 17.4578 3.25381 18.0862C3.52119 18.7146 3.90973 19.2842 4.39724 19.7624C4.88476 20.2406 5.4617 20.6181 6.09512 20.8734C6.72854 21.1286 7.40603 21.2566 8.08891 21.25H16.1889C17.568 21.25 18.8907 20.7021 19.8659 19.727C20.8411 18.7518 21.3889 17.4291 21.3889 16.05V8C21.3889 6.62087 20.8411 5.29823 19.8659 4.32304C18.8907 3.34786 17.568 2.8 16.1889 2.8L8.08891 2.75ZM14.0889 18.54C13.8229 18.5376 13.5617 18.4688 13.3289 18.34C13.0801 18.2143 12.8704 18.0231 12.7223 17.787C12.5743 17.5508 12.4936 17.2787 12.4889 17V13.77C12.491 13.5045 12.5622 13.2441 12.6955 13.0144C12.8287 12.7847 13.0194 12.5936 13.2489 12.46L16.0889 10.83C16.3195 10.6957 16.5815 10.6249 16.8484 10.6248C17.1153 10.6247 17.3774 10.6953 17.608 10.8294C17.8387 10.9635 18.0297 11.1564 18.1616 11.3884C18.2935 11.6204 18.3616 11.8832 18.3589 12.15V15.4C18.3588 15.6648 18.2896 15.9249 18.158 16.1547C18.0265 16.3845 17.8372 16.5759 17.6089 16.71L14.7889 18.34C14.5502 18.4721 14.2817 18.5409 14.0089 18.54H14.0889ZM16.5189 11.48L16.8989 12.13L14.0789 13.76V17L16.9289 15.39V12.15L16.5189 11.48ZM10.2489 18.48C9.98139 18.479 9.71899 18.4065 9.48891 18.27L6.58891 16.65C6.36052 16.5135 6.17139 16.3202 6.03995 16.0888C5.90851 15.8575 5.83925 15.5961 5.83891 15.33V12.08C5.84 11.8169 5.9098 11.5587 6.04139 11.3309C6.17298 11.1031 6.36179 10.9137 6.58914 10.7813C6.81648 10.6489 7.07446 10.5783 7.33752 10.5763C7.60058 10.5743 7.8596 10.6411 8.08891 10.77L10.9089 12.39C11.1398 12.5245 11.3315 12.7171 11.4648 12.9487C11.5982 13.1803 11.6685 13.4428 11.6689 13.71V17C11.6637 17.4015 11.5019 17.7851 11.218 18.0691C10.934 18.353 10.5504 18.5148 10.1489 18.52L10.2489 18.48ZM7.34891 12.06V15.33L10.1589 17V13.74L7.35891 12.07L7.34891 12.06ZM12.2589 11.74C11.9922 11.7425 11.7298 11.6735 11.4989 11.54L8.67891 9.93C8.44799 9.79551 8.25632 9.60288 8.12298 9.37129C7.98964 9.13971 7.91928 8.87723 7.91891 8.61C7.91587 8.34344 7.98488 8.08101 8.11866 7.85042C8.25243 7.61984 8.446 7.42967 8.67891 7.3L11.4889 5.66C11.7185 5.52747 11.9789 5.4577 12.2439 5.4577C12.509 5.4577 12.7694 5.52747 12.9989 5.66L15.8289 7.28C16.0593 7.41359 16.2506 7.60539 16.3836 7.83617C16.5166 8.06696 16.5866 8.32864 16.5866 8.595C16.5866 8.86136 16.5166 9.12303 16.3836 9.35382C16.2506 9.58461 16.0593 9.77641 15.8289 9.91L13.0189 11.54C12.7884 11.6744 12.5257 11.7435 12.2589 11.74ZM12.2589 6.96L9.42891 8.6L12.2589 10.24L15.0889 8.61L12.2589 6.96Z" fill="#3633DB"/>
</g>
</svg>
