<svg width="24" height="24" viewBox="0 0 24 24" fill="none" xmlns="http://www.w3.org/2000/svg">
<g opacity="0.35">
<path d="M22.359 10.33C22.359 10.23 22.419 10.14 22.439 10.04C22.4865 9.87645 22.5199 9.70918 22.539 9.53998V9.30998C22.564 9.05726 22.564 8.80269 22.539 8.54998L22.159 5.54998C22.0577 4.66891 21.7112 3.83394 21.159 3.13998C20.7042 2.56464 20.1254 2.09944 19.4656 1.7791C18.8059 1.45877 18.0824 1.29157 17.349 1.28998H7.089C5.89103 1.29407 4.73606 1.73689 3.84241 2.53472C2.94876 3.33256 2.37835 4.43013 2.239 5.61998L1.889 8.77998C1.86399 9.02267 1.86399 9.26729 1.889 9.50998V9.72998C1.90692 9.88626 1.94042 10.0404 1.989 10.19C2.0097 10.2882 2.03642 10.385 2.069 10.48C2.069 10.59 2.159 10.69 2.209 10.8C2.259 10.91 2.289 11.01 2.349 11.11V17.25C2.35164 18.7079 2.93196 20.1053 3.96283 21.1361C4.99371 22.167 6.39112 22.7473 7.849 22.75H16.539C17.2613 22.75 17.9765 22.6077 18.6438 22.3313C19.3111 22.0549 19.9174 21.6498 20.4281 21.1391C20.9388 20.6283 21.3439 20.022 21.6203 19.3547C21.8967 18.6874 22.039 17.9722 22.039 17.25V11C22.0925 10.9047 22.136 10.8042 22.169 10.7C22.2413 10.5815 22.3048 10.4578 22.359 10.33ZM17.359 2.71998C17.8684 2.7212 18.371 2.83685 18.8297 3.0584C19.2883 3.27996 19.6914 3.60174 20.009 3.99998C20.3969 4.48326 20.6428 5.06495 20.719 5.67998L21.099 8.67998C21.1141 8.84296 21.1141 9.00699 21.099 9.16998V9.34998C21.1038 9.43992 21.1038 9.53004 21.099 9.61998C21.099 9.69998 21.049 9.78998 21.009 9.87998C20.9968 9.92489 20.98 9.96844 20.959 10.01C20.9121 10.1216 20.8552 10.2287 20.789 10.33C20.709 10.44 20.639 10.55 20.559 10.65C20.3208 10.9191 20.0284 11.1349 19.7009 11.2831C19.3735 11.4313 19.0184 11.5086 18.659 11.51C18.0257 11.5285 17.4089 11.3069 16.9322 10.8896C16.4556 10.4723 16.1544 9.89013 16.089 9.25998L15.779 5.68998L15.529 2.68998L17.359 2.71998ZM14.089 2.71998V2.99998L14.599 8.99998C14.6283 9.32594 14.5891 9.65443 14.4841 9.9644C14.379 10.2744 14.2104 10.559 13.989 10.8C13.7635 11.0319 13.4937 11.2163 13.1957 11.3422C12.8977 11.4681 12.5775 11.5329 12.254 11.5329C11.9305 11.5329 11.6103 11.4681 11.3123 11.3422C11.0143 11.2163 10.7445 11.0319 10.519 10.8C10.2966 10.5646 10.125 10.286 10.0149 9.98154C9.90481 9.67704 9.85855 9.35313 9.879 9.02998L10.089 4.86998L10.229 2.71998H14.089ZM3.699 5.77998C3.78771 4.94184 4.18279 4.16598 4.80842 3.60125C5.43406 3.03652 6.24619 2.72269 7.089 2.71998H8.789L8.369 9.34998C8.33092 9.95046 8.06587 10.514 7.62761 10.9262C7.18935 11.3385 6.61069 11.5686 6.009 11.57H5.699C5.36664 11.5691 5.03819 11.4983 4.73498 11.3622C4.43177 11.2261 4.16057 11.0277 3.939 10.78C3.8635 10.6933 3.79652 10.5995 3.739 10.5C3.67277 10.3987 3.61587 10.2916 3.569 10.18C3.56524 10.1501 3.56524 10.1199 3.569 10.09C3.5301 10.0032 3.49995 9.91275 3.479 9.81998C3.47331 9.74675 3.47331 9.6732 3.479 9.59998C3.47418 9.53674 3.47418 9.47322 3.479 9.40998C3.46403 9.26035 3.46403 9.1096 3.479 8.95998L3.699 5.77998ZM10.299 21.28V19.28C10.299 18.7495 10.5097 18.2408 10.8848 17.8658C11.2599 17.4907 11.7686 17.28 12.299 17.28C12.8294 17.28 13.3381 17.4907 13.7132 17.8658C14.0883 18.2408 14.299 18.7495 14.299 19.28V21.28H10.299ZM16.569 21.28H15.769V19.28C15.769 18.3597 15.4034 17.4771 14.7527 16.8263C14.1019 16.1756 13.2193 15.81 12.299 15.81C11.3787 15.81 10.4961 16.1756 9.84534 16.8263C9.19459 17.4771 8.829 18.3597 8.829 19.28V21.28H7.829C6.76813 21.28 5.75072 20.8586 5.00057 20.1084C4.25043 19.3583 3.829 18.3408 3.829 17.28V12.53C4.39316 12.8511 5.02987 13.0232 5.679 13.03H5.989C6.59535 13.027 7.19236 12.8804 7.73118 12.6023C8.27 12.3242 8.7353 11.9225 9.089 11.43C9.17697 11.5688 9.27738 11.6993 9.389 11.82C9.74834 12.2058 10.1833 12.5135 10.6667 12.7239C11.1502 12.9342 11.6718 13.0428 12.199 13.0428C12.7262 13.0428 13.2478 12.9342 13.7313 12.7239C14.2147 12.5135 14.6497 12.2058 15.009 11.82C15.121 11.6901 15.2246 11.5531 15.319 11.41C15.8965 12.2191 16.7584 12.78 17.7321 12.9803C18.7057 13.1806 19.7191 13.0054 20.569 12.49V17.28C20.569 17.8053 20.4655 18.3254 20.2645 18.8107C20.0635 19.296 19.7689 19.737 19.3974 20.1084C19.026 20.4798 18.585 20.7745 18.0997 20.9755C17.6144 21.1765 17.0943 21.28 16.569 21.28Z" fill="#3633DB"/>
</g>
</svg>
