<svg width="61" height="61" viewBox="0 0 61 61" fill="none" xmlns="http://www.w3.org/2000/svg">
<rect opacity="0.05" x="0.666626" y="0.29126" width="60" height="60" rx="8.57143" fill="#FF5E5E"/>
<path opacity="0.3" d="M37.4833 23.4578H23.6667C22.1634 23.458 20.7092 23.993 19.5642 24.9671C18.4192 25.9411 17.658 27.2907 17.4167 28.7744L15.6667 39.6911C15.5167 40.598 15.5659 41.5268 15.811 42.4128C16.056 43.2988 16.491 44.1208 17.0857 44.8218C17.6804 45.5227 18.4206 46.0858 19.2549 46.472C20.0891 46.8581 20.9974 47.058 21.9167 47.0578H39.4667C40.3917 47.0532 41.3046 46.8461 42.141 46.4509C42.9774 46.0557 43.7171 45.4821 44.3081 44.7704C44.8991 44.0587 45.3269 43.2262 45.5617 42.3314C45.7964 41.4366 45.8322 40.5012 45.6667 39.5911L43.7333 28.6244C43.4544 27.1711 42.6779 25.8603 41.5373 24.9174C40.3967 23.9745 38.9632 23.4584 37.4833 23.4578Z" fill="#FF5E5E"/>
<path d="M37.7166 26.3245C37.3851 26.3245 37.0672 26.1928 36.8327 25.9584C36.5983 25.724 36.4666 25.4061 36.4666 25.0745V19.1745C36.4666 18.3729 36.1493 17.6039 35.5841 17.0355C35.0188 16.4671 34.2516 16.1456 33.45 16.1412H27.5333C26.7317 16.1456 25.9644 16.4671 25.3992 17.0355C24.8339 17.6039 24.5166 18.3729 24.5166 19.1745V25.0745C24.5166 25.4061 24.3849 25.724 24.1505 25.9584C23.9161 26.1928 23.5981 26.3245 23.2666 26.3245C22.9351 26.3245 22.6172 26.1928 22.3827 25.9584C22.1483 25.724 22.0166 25.4061 22.0166 25.0745V19.1745C22.0144 18.4479 22.1554 17.7279 22.4314 17.0557C22.7075 16.3836 23.1132 15.7724 23.6255 15.257C24.1378 14.7416 24.7465 14.3322 25.417 14.0521C26.0875 13.772 26.8066 13.6267 27.5333 13.6245H33.45C34.1794 13.6223 34.9021 13.7644 35.5765 14.0425C36.2508 14.3207 36.8635 14.7294 37.3793 15.2452C37.8951 15.761 38.3038 16.3737 38.582 17.048C38.8601 17.7224 39.0022 18.4451 39 19.1745V25.0745C39.0024 25.2422 38.9706 25.4086 38.9065 25.5635C38.8424 25.7185 38.7474 25.8587 38.6273 25.9757C38.5072 26.0927 38.3645 26.184 38.2079 26.244C38.0513 26.3039 37.8842 26.3314 37.7166 26.3245Z" fill="#FF5E5E"/>
<path d="M45.8 41.0078C45.816 40.5334 45.7824 40.0586 45.7 39.5912L45.5167 38.6245H29C28.7082 38.6591 28.4393 38.7995 28.2441 39.0191C28.049 39.2388 27.9412 39.5224 27.9412 39.8162C27.9412 40.11 28.049 40.3936 28.2441 40.6132C28.4393 40.8329 28.7082 40.9733 29 41.0078H45.8Z" fill="#FF5E5E"/>
</svg>
