<svg width="24" height="24" viewBox="0 0 24 24" fill="none" xmlns="http://www.w3.org/2000/svg">
<g opacity="0.35">
<path d="M11.5791 13.24C12.7068 13.24 13.8093 12.9054 14.7468 12.2786C15.6844 11.6519 16.415 10.7611 16.8461 9.71895C17.2772 8.67683 17.3895 7.53023 17.1688 6.42427C16.948 5.31831 16.4042 4.30268 15.606 3.50592C14.8079 2.70916 13.7913 2.16708 12.6849 1.94828C11.5786 1.72947 10.4322 1.84378 9.39083 2.27673C8.34947 2.70968 7.45994 3.44182 6.83482 4.3805C6.2097 5.31917 5.87708 6.42219 5.87906 7.54997C5.87906 8.29803 6.02657 9.03875 6.31314 9.72975C6.59972 10.4207 7.01973 11.0484 7.54916 11.5769C8.07858 12.1054 8.70703 12.5244 9.39852 12.8097C10.09 13.0951 10.831 13.2413 11.5791 13.24ZM11.5791 3.34997C12.4097 3.34997 13.2218 3.59629 13.9125 4.0578C14.6031 4.5193 15.1415 5.17525 15.4594 5.9427C15.7772 6.71015 15.8604 7.55463 15.6984 8.36935C15.5363 9.18407 15.1363 9.93244 14.5489 10.5198C13.9615 11.1072 13.2132 11.5072 12.3984 11.6693C11.5837 11.8313 10.7392 11.7482 9.97179 11.4303C9.20434 11.1124 8.54839 10.574 8.08689 9.88336C7.62539 9.19268 7.37906 8.38065 7.37906 7.54997C7.37906 6.43606 7.82156 5.36777 8.60921 4.58012C9.39687 3.79247 10.4652 3.34997 11.5791 3.34997ZM17.5191 12.73C16.8746 12.7287 16.2369 12.8613 15.6464 13.1195C15.056 13.3778 14.5256 13.7559 14.0891 14.23C13.2631 14.0348 12.4177 13.9342 11.5691 13.93C6.78906 13.93 2.65906 17.04 1.95906 21.18C1.94188 21.2766 1.94409 21.3756 1.96554 21.4714C1.987 21.5671 2.02729 21.6576 2.08405 21.7376C2.14081 21.8177 2.21293 21.8856 2.29619 21.9375C2.37946 21.9894 2.47221 22.0242 2.56906 22.04H2.69906C2.87513 22.0383 3.04518 21.9756 3.18015 21.8626C3.31512 21.7495 3.40663 21.593 3.43906 21.42C4.00906 18 7.50906 15.42 11.5691 15.42C12.1123 15.4253 12.6541 15.4754 13.1891 15.57C12.9316 16.1562 12.7988 16.7896 12.7991 17.43C12.7991 18.3615 13.0753 19.2721 13.5928 20.0467C14.1104 20.8213 14.846 21.425 15.7066 21.7814C16.5673 22.1379 17.5143 22.2312 18.4279 22.0495C19.3416 21.8677 20.1808 21.4191 20.8395 20.7604C21.4982 20.1017 21.9468 19.2625 22.1286 18.3488C22.3103 17.4352 22.217 16.4882 21.8605 15.6275C21.504 14.7669 20.9004 14.0313 20.1258 13.5137C19.3512 12.9962 18.4406 12.72 17.5091 12.72L17.5191 12.73ZM17.5191 20.65C16.8838 20.6519 16.2622 20.4654 15.733 20.1139C15.2038 19.7623 14.7908 19.2617 14.5463 18.6753C14.3018 18.089 14.2368 17.4432 14.3595 16.8199C14.4823 16.1965 14.7872 15.6236 15.2357 15.1737C15.6842 14.7238 16.2562 14.4171 16.8791 14.2924C17.5021 14.1677 18.148 14.2307 18.7352 14.4734C19.3223 14.716 19.8242 15.1275 20.1774 15.6556C20.5305 16.1836 20.7191 16.8047 20.7191 17.44C20.7191 18.2896 20.3822 19.1045 19.7824 19.7063C19.1826 20.308 18.3687 20.6473 17.5191 20.65ZM19.5191 15.89C19.6637 16.0093 19.7568 16.1798 19.7791 16.366C19.8015 16.5521 19.7513 16.7398 19.6391 16.89L17.9591 19.04C17.8882 19.1289 17.7986 19.201 17.6966 19.2511C17.5946 19.3012 17.4827 19.3282 17.3691 19.33C17.2566 19.3296 17.1457 19.3032 17.0451 19.2529C16.9445 19.2026 16.8569 19.1297 16.7891 19.04L15.5691 17.49C15.4603 17.3377 15.4132 17.1499 15.4374 16.9644C15.4615 16.7789 15.555 16.6093 15.6991 16.49C15.8493 16.3777 16.0369 16.3276 16.2231 16.3499C16.4092 16.3722 16.5797 16.4654 16.6991 16.61L17.3291 17.42L18.4691 16C18.5925 15.8476 18.7713 15.7504 18.9663 15.7298C19.1613 15.7092 19.3565 15.7668 19.5091 15.89H19.5191Z" fill="#3633DB"/>
</g>
</svg>
