<svg width="24" height="24" viewBox="0 0 24 24" fill="none" xmlns="http://www.w3.org/2000/svg">
<g opacity="0.35">
<path d="M14.5689 1.34005C12.3843 1.3427 10.29 2.21169 8.74528 3.75641C7.20055 5.30114 6.33156 7.39548 6.32892 9.58005C6.33037 10.2715 6.41771 10.9601 6.58892 11.63L1.96892 16.25C1.73006 16.484 1.55365 16.774 1.45583 17.0937C1.358 17.4134 1.34187 17.7525 1.40892 18.08L1.89892 20.6C1.97631 20.9993 2.17072 21.3666 2.45741 21.655C2.74411 21.9435 3.11013 22.1402 3.50892 22.22L6.08892 22.71C6.22181 22.7253 6.35602 22.7253 6.48892 22.71C6.7569 22.7116 7.02246 22.6593 7.26983 22.5562C7.5172 22.4532 7.74133 22.3014 7.92892 22.1101L12.5389 17.51C13.2177 17.6895 13.9168 17.7802 14.6189 17.7801C16.8043 17.7801 18.9002 16.9119 20.4455 15.3666C21.9908 13.8213 22.8589 11.7254 22.8589 9.54005C22.8589 7.35466 21.9908 5.25879 20.4455 3.71349C18.9002 2.16819 16.8043 1.30005 14.6189 1.30005L14.5689 1.34005ZM14.5689 16.34C13.8653 16.3371 13.1665 16.2223 12.4989 16C12.3681 15.9562 12.2275 15.9498 12.0932 15.9816C11.9589 16.0134 11.8362 16.0822 11.7389 16.18L9.35892 18.55L7.73892 17C7.59016 16.9035 7.412 16.8628 7.23607 16.8851C7.06014 16.9075 6.89782 16.9914 6.77793 17.1221C6.65804 17.2528 6.58833 17.4217 6.58119 17.5989C6.57405 17.7761 6.62993 17.9501 6.73892 18.09L8.32892 19.6201L6.81892 21.09C6.75555 21.1529 6.67783 21.1995 6.59245 21.2256C6.50708 21.2517 6.41663 21.2567 6.32892 21.24L3.79892 20.74C3.69178 20.7212 3.59304 20.6698 3.51611 20.5929C3.43919 20.5159 3.38779 20.4172 3.36892 20.31L2.87892 17.8C2.86472 17.7123 2.87086 17.6225 2.89687 17.5376C2.92288 17.4526 2.96805 17.3748 3.02892 17.31L7.95892 12.38C8.05661 12.2826 8.12591 12.1603 8.15939 12.0264C8.19286 11.8925 8.18924 11.752 8.14892 11.62C7.71864 10.2651 7.7278 8.80886 8.17507 7.45946C8.62234 6.11006 9.48483 4.93664 10.6392 4.10697C11.7936 3.27731 13.1807 2.83389 14.6023 2.84011C16.0239 2.84634 17.4071 3.3019 18.5542 4.14165C19.7012 4.9814 20.5534 6.16234 20.9888 7.5156C21.4243 8.86887 21.4207 10.3252 20.9785 11.6763C20.5364 13.0273 19.6784 14.2041 18.5272 15.0381C17.376 15.8722 15.9905 16.3209 14.5689 16.32V16.34ZM14.5689 6.39005C13.9336 6.38807 13.312 6.57465 12.7828 6.92616C12.2536 7.27768 11.8406 7.77832 11.5961 8.36469C11.3517 8.95106 11.2867 9.5968 11.4094 10.2201C11.5321 10.8435 11.837 11.4164 12.2856 11.8663C12.7341 12.3162 13.306 12.6229 13.929 12.7476C14.5519 12.8723 15.1979 12.8093 15.785 12.5666C16.3721 12.324 16.8741 11.9126 17.2272 11.3845C17.5804 10.8564 17.7689 10.2354 17.7689 9.60005C17.7716 9.17767 17.6908 8.75892 17.5313 8.3678C17.3718 7.97669 17.1366 7.6209 16.8394 7.32084C16.5421 7.02077 16.1885 6.78232 15.7989 6.61917C15.4093 6.45601 14.9913 6.37136 14.5689 6.37005V6.39005ZM14.5689 11.3C14.2299 11.302 13.8979 11.2032 13.6151 11.016C13.3324 10.8289 13.1117 10.5619 12.981 10.2491C12.8504 9.9362 12.8157 9.59156 12.8813 9.25892C12.947 8.92628 13.11 8.62067 13.3498 8.38093C13.5895 8.14118 13.8952 7.97811 14.2278 7.91245C14.5604 7.84679 14.9051 7.88149 15.2179 8.01216C15.5308 8.14282 15.7978 8.36354 15.9849 8.64628C16.172 8.92901 16.2709 9.261 16.2689 9.60005C16.2611 10.0466 16.0788 10.4724 15.7612 10.7864C15.4435 11.1003 15.0156 11.2775 14.5689 11.28V11.3Z" fill="#3633DB"/>
</g>
</svg>
