<svg width="24" height="24" viewBox="0 0 24 24" fill="none" xmlns="http://www.w3.org/2000/svg">
<g opacity="0.35">
<path d="M21.999 8.40001C21.9486 8.0227 21.8511 7.65317 21.709 7.30001H21.769L21.399 6.65001C21.3734 6.61838 21.35 6.58496 21.329 6.55001L21.009 6.00001C20.7938 5.7331 20.5489 5.49154 20.279 5.28001L20.199 5.21001C20.0287 5.08093 19.8518 4.96076 19.669 4.85001L14.549 1.85001C13.8126 1.42716 12.9782 1.20465 12.129 1.20465C11.2798 1.20465 10.4455 1.42716 9.70904 1.85001L4.58904 4.85001L4.05904 5.20001L3.93904 5.31001C3.47838 5.6751 3.0857 6.11855 2.77904 6.62001L2.40904 7.27001H2.46904C2.25394 7.82158 2.14208 8.40799 2.13904 9.00001V15C2.13904 15.8469 2.3617 16.6788 2.7847 17.4125C3.20769 18.1462 3.81614 18.7557 4.54904 19.18L9.66904 22.18C10.2276 22.4978 10.8421 22.7049 11.479 22.79V22.84H12.069H12.339H12.809H12.949L13.399 22.74L13.599 22.67C13.719 22.67 13.839 22.6 13.959 22.55C14.1472 22.4701 14.3308 22.38 14.509 22.28L19.629 19.28C20.3861 18.8538 21.0142 18.2313 21.4471 17.478C21.8801 16.7248 22.1018 15.8687 22.089 15V9.00001C22.0728 8.79819 22.0427 8.59772 21.999 8.40001ZM10.419 3.19001C10.9278 2.89977 11.5033 2.74712 12.089 2.74712C12.6747 2.74712 13.2503 2.89977 13.759 3.19001L18.879 6.19001L19.269 6.45001L19.389 6.56001L19.609 6.76001L15.089 9.41001L12.089 11.13L4.53904 6.76001C4.61073 6.68165 4.68757 6.60815 4.76904 6.54001L4.87904 6.44001L5.26904 6.18001L10.419 3.19001ZM10.419 20.79L5.29904 17.79C4.80599 17.5067 4.39425 17.1012 4.10349 16.6125C3.81274 16.1238 3.65278 15.5685 3.63904 15V9.00001C3.63521 8.6608 3.68585 8.32317 3.78904 8.00001L11.349 12.37L11.459 21.09C11.0982 21.0479 10.7468 20.9466 10.419 20.79ZM20.539 15C20.5409 15.5838 20.3883 16.1577 20.0968 16.6635C19.8053 17.1693 19.3851 17.589 18.879 17.88L13.759 20.88C13.5101 21.0289 13.2405 21.1401 12.959 21.21L12.849 12.51L20.389 8.06001C20.4284 8.18087 20.4585 8.30456 20.479 8.43001C20.4734 8.46311 20.4734 8.49691 20.479 8.53001C20.489 8.68652 20.489 8.8435 20.479 9.00001L20.539 15Z" fill="#3633DB"/>
</g>
</svg>
