<svg width="61" height="61" viewBox="0 0 61 61" fill="none" xmlns="http://www.w3.org/2000/svg">
<rect opacity="0.05" x="0.333374" y="0.29126" width="60" height="60" rx="8.57143" fill="#33DB9E"/>
<path d="M30.5667 30.7912C29.8599 30.7928 29.1603 30.6489 28.5115 30.3685C27.8628 30.0881 27.2786 29.6771 26.7955 29.1612C26.3124 28.6453 25.9407 28.0354 25.7035 27.3696C25.4663 26.7038 25.3687 25.9963 25.4167 25.2912L26.1334 13.6245H34.7L35.7 25.1912C35.7599 25.9024 35.6717 26.6183 35.4411 27.2938C35.2105 27.9693 34.8425 28.5896 34.3602 29.1158C33.8779 29.6419 33.2918 30.0624 32.6389 30.3508C31.986 30.6391 31.2804 30.7891 30.5667 30.7912Z" fill="#33DB9E"/>
<path opacity="0.3" d="M41.1501 30.7912C39.7857 30.791 38.4717 30.276 37.4706 29.349C36.4694 28.4221 35.855 27.1515 35.7501 25.7912L34.7334 13.8745C34.7334 13.8082 34.7597 13.7446 34.8066 13.6977C34.8535 13.6509 34.9171 13.6245 34.9834 13.6245H39.0834C40.7578 13.6238 42.3748 14.235 43.6302 15.343C44.8855 16.4511 45.6928 17.9796 45.9001 19.6412L46.5334 24.6412C46.6355 25.4082 46.5725 26.1883 46.3487 26.929C46.125 27.6698 45.7455 28.3542 45.2358 28.9365C44.7262 29.5188 44.098 29.9855 43.3934 30.3053C42.6887 30.6252 41.9239 30.7908 41.1501 30.7912Z" fill="#33DB9E"/>
<path opacity="0.3" d="M20.2167 30.7912H19.7001C18.9761 30.7909 18.2604 30.638 17.5995 30.3424C16.9387 30.0468 16.3475 29.6153 15.8647 29.0758C15.3819 28.5364 15.0182 27.9012 14.7975 27.2118C14.5767 26.5223 14.5037 25.7941 14.5834 25.0745L15.1501 19.8078C15.3376 18.1176 16.1384 16.5548 17.4007 15.4152C18.6631 14.2757 20.2995 13.6386 22.0001 13.6245H26.1334L25.3334 25.9578C25.253 27.2624 24.6797 28.4875 23.7296 29.385C22.7795 30.2825 21.5237 30.7852 20.2167 30.7912Z" fill="#33DB9E"/>
<path opacity="0.3" d="M46.5334 24.6912L45.9 19.6912C45.7041 18.0206 44.9017 16.48 43.6452 15.3617C42.3887 14.2435 40.7654 13.6253 39.0834 13.6245H34.9834C34.9475 13.6242 34.912 13.6316 34.8793 13.6462C34.8466 13.6608 34.8174 13.6822 34.7937 13.7091C34.77 13.736 34.7523 13.7676 34.7419 13.8019C34.7315 13.8362 34.7286 13.8723 34.7334 13.9079V14.6245L34.7 13.6245H26.1334V14.6245V13.6245H22C20.2995 13.6386 18.6631 14.2757 17.4007 15.4153C16.1383 16.5548 15.3376 18.1176 15.15 19.8079L14.5834 25.0745C14.4538 26.2472 14.7431 27.4279 15.4 28.4079V39.0079C15.3978 40.0511 15.6014 41.0845 15.9991 42.0489C16.3968 43.0134 16.9808 43.8899 17.7177 44.6283C18.4546 45.3668 19.3299 45.9526 20.2935 46.3524C21.2571 46.7521 22.2901 46.9579 23.3334 46.9579H37.8C39.9041 46.9579 41.9219 46.122 43.4097 44.6342C44.8975 43.1464 45.7334 41.1286 45.7334 39.0245V28.2412C46.4053 27.1871 46.6883 25.9316 46.5334 24.6912Z" fill="#33DB9E"/>
<path d="M30.6834 37.8579C31.8902 37.8579 33.0475 38.3373 33.9008 39.1906C34.7541 40.0439 35.2334 41.2012 35.2334 42.4079V46.9579H26.1334V42.4079C26.1334 41.2012 26.6128 40.0439 27.4661 39.1906C28.3194 38.3373 29.4767 37.8579 30.6834 37.8579Z" fill="#33DB9E"/>
</svg>
