<svg width="24" height="24" viewBox="0 0 24 24" fill="none" xmlns="http://www.w3.org/2000/svg">
<g opacity="0.35">
<path d="M22.2291 17.23L20.9991 10.43C20.8259 9.49828 20.3752 8.64064 19.706 7.96964C19.0368 7.29864 18.1803 6.84561 17.2491 6.67001V4.67001C17.2464 3.7647 16.8849 2.89738 16.2438 2.25817C15.6027 1.61895 14.7344 1.26001 13.8291 1.26001H10.0891C9.19242 1.27048 8.33577 1.63269 7.70358 2.26862C7.07139 2.90455 6.71424 3.76333 6.70906 4.66001V6.66001C5.78943 6.86168 4.95201 7.33604 4.30619 8.02111C3.66037 8.70617 3.23619 9.57009 3.08906 10.5L1.92906 17.3C1.81853 17.973 1.85612 18.6621 2.03923 19.3191C2.22233 19.9761 2.54653 20.5853 2.98923 21.1042C3.43193 21.623 3.98247 22.0391 4.60247 22.3234C5.22247 22.6076 5.89701 22.7532 6.57906 22.75H17.5791C18.2688 22.7527 18.9506 22.6037 19.5762 22.3133C20.2018 22.023 20.7559 21.5985 21.1991 21.07C21.6439 20.5459 21.967 19.9296 22.1451 19.2656C22.3233 18.6016 22.3519 17.9064 22.2291 17.23ZM10.0891 2.74001H13.7891C14.2983 2.74001 14.7866 2.94229 15.1467 3.30236C15.5068 3.66243 15.7091 4.15079 15.7091 4.66001V6.58001H8.20906V4.66001C8.20895 4.15765 8.40574 3.67526 8.7572 3.31631C9.10867 2.95737 9.58681 2.75048 10.0891 2.74001ZM17.5891 21.26H6.58906C6.12378 21.2618 5.6637 21.1622 5.24088 20.968C4.81807 20.7738 4.44269 20.4897 4.14091 20.1355C3.83912 19.7814 3.6182 19.3657 3.49353 18.9174C3.36886 18.4692 3.34345 17.9991 3.41906 17.54L4.54906 10.75C4.64383 10.1736 4.89554 9.63444 5.27657 9.19167C5.6576 8.7489 6.15322 8.41964 6.70906 8.24001V8.33001C6.70906 8.52892 6.78808 8.71969 6.92873 8.86034C7.06938 9.00099 7.26015 9.08001 7.45906 9.08001C7.65797 9.08001 7.84874 9.00099 7.98939 8.86034C8.13004 8.71969 8.20906 8.52892 8.20906 8.33001V8.07001H15.7491V8.33001C15.7491 8.52892 15.8281 8.71969 15.9687 8.86034C16.1094 9.00099 16.3001 9.08001 16.4991 9.08001C16.698 9.08001 16.8887 9.00099 17.0294 8.86034C17.17 8.71969 17.2491 8.52892 17.2491 8.33001V8.21001C17.8227 8.37077 18.3396 8.68942 18.741 9.12965C19.1423 9.56989 19.4119 10.114 19.5191 10.7L20.6191 16.75H11.0891C10.8901 16.75 10.6994 16.829 10.5587 16.9697C10.4181 17.1103 10.3391 17.3011 10.3391 17.5C10.3391 17.6989 10.4181 17.8897 10.5587 18.0303C10.6994 18.171 10.8901 18.25 11.0891 18.25H20.8391C20.7969 18.9348 20.5338 19.5875 20.0891 20.11C19.7837 20.475 19.4009 20.7676 18.9685 20.9665C18.5362 21.1654 18.065 21.2656 17.5891 21.26Z" fill="#3633DB"/>
</g>
</svg>
