<svg width="60" height="61" viewBox="0 0 60 61" fill="none" xmlns="http://www.w3.org/2000/svg">
<rect opacity="0.05" y="0.29126" width="60" height="60" rx="8.57143" fill="#3E97FF"/>
<path opacity="0.3" d="M26.5166 46.408L17.7833 41.408C16.7107 40.7909 15.8223 39.8986 15.21 38.8233C14.5976 37.748 14.2834 36.5287 14.2999 35.2913V25.2913C14.2923 24.0625 14.6107 22.8535 15.2227 21.7878C15.8346 20.7221 16.7181 19.8376 17.7833 19.2247L26.5166 14.2247C27.5746 13.6099 28.7763 13.2861 29.9999 13.2861C31.2235 13.2861 32.4253 13.6099 33.4833 14.2247L42.2166 19.2247C43.2817 19.8376 44.1653 20.7221 44.7772 21.7878C45.3891 22.8535 45.7075 24.0625 45.6999 25.2913V35.2913C45.6987 36.5118 45.3761 37.7103 44.7647 38.7665C44.1532 39.8227 43.2744 40.6993 42.2166 41.308L33.4833 46.308C32.4342 46.938 31.237 47.2791 30.0134 47.2967C28.7898 47.3142 27.5834 47.0076 26.5166 46.408Z" fill="#3E97FF"/>
<path opacity="0.3" d="M44.7665 21.7747C44.1608 20.7112 43.28 19.8303 42.2165 19.2247L33.4832 14.2247C32.4252 13.6099 31.2234 13.2861 29.9998 13.2861C28.7762 13.2861 27.5744 13.6099 26.5165 14.2247L17.7832 19.2247C16.7197 19.8303 15.8388 20.7112 15.2332 21.7747L29.9998 30.2913L44.7665 21.7747Z" fill="#3E97FF"/>
<path d="M44.75 21.7747L30 30.2913L30.2167 47.3247C31.3873 47.3047 32.5338 46.9894 33.55 46.408L42.2833 41.408C43.3435 40.7824 44.2185 39.8864 44.8188 38.8117C45.4191 37.737 45.7232 36.5221 45.7 35.2913V25.2913C45.7024 24.0554 45.3744 22.8413 44.75 21.7747Z" fill="#3E97FF"/>
</svg>
